<?xml version="1.0" encoding="UTF-8"?>
<svg id="Camada_2" data-name="Camada 2" xmlns="http://www.w3.org/2000/svg" viewBox="0 0 383.32 342.32">
  <defs>
    <style>
      .cls-1 {
        fill: #fff;
        stroke-width: 0px;
      }
    </style>
  </defs>
  <g id="Camada_1-2" data-name="Camada 1">
    <g>
      <path class="cls-1" d="M0,44.4c1.32-2.64,2.33-5.5,4.01-7.89,3.92-5.54,9.49-8.5,16.26-8.54,22.08-.11,44.17-.07,66.25-.04,4.1,0,6.52,2.19,6.53,5.61.01,3.54-2.45,5.61-6.86,5.62-21.21.02-42.42,0-63.63.02-7.74,0-11.33,3.52-11.33,11.11-.01,57.26,0,114.53,0,171.79,0,.99,0,1.99,0,3.63,1.86,0,3.53,0,5.21,0,92.95,0,185.9,0,278.85,0,1.62,0,3.26-.05,4.86.15,2.84.37,4.49,2.11,4.7,4.97.23,3.02-1.19,5.11-4.15,5.81-1.55.36-3.22.31-4.83.31-92.95.01-185.9.01-278.85.01-1.74,0-3.48,0-5.43,0-.13,1-.34,1.83-.34,2.66-.02,8.63-.06,17.25,0,25.88.04,6.36,3.51,9.97,9.82,10.36,1.24.08,2.49.04,3.74.04,111.29,0,222.58,0,333.88,0,1.62,0,3.25.01,4.85-.18,4.96-.6,8.37-3.95,8.46-8.89.17-9.74.05-19.48.05-29.65-1.45-.07-2.76-.19-4.06-.19-12.6-.01-25.2,0-37.8-.02-1.36,0-2.77-.03-4.07-.38-2.77-.75-4.18-2.84-3.99-5.6.19-2.73,1.76-4.71,4.64-5.07,1.85-.23,3.73-.18,5.6-.18,13.08-.01,26.15,0,39.72,0v-4.3c0-56.76,0-113.53,0-170.29,0-8.62-3.33-11.94-12.01-11.94-27.95,0-55.9,0-83.84,0h-4.2c.85,1.34,1.38,2.26,2,3.12,45.92,63.43,8.02,152.46-69.5,163.23-55.96,7.78-108.27-32.47-115.59-88.95C81.69,60.56,120.77,8.88,176.37,1.05c15.54-2.19,30.87-1,45.81,3.91,1.93.63,4.08,2.23,4.94,3.97.67,1.37.12,4.44-1.01,5.33-1.58,1.24-4.29,1.82-6.35,1.53-8.97-1.25-17.86-4.06-26.83-4.24-48.09-.96-87.49,33.88-93.21,81.74-5.66,47.43,28.57,92.86,75.72,100.48,52.35,8.46,100.48-27.1,106.47-79.73,3.92-34.43-8.69-62.66-35.84-84.26-.98-.78-2.04-1.45-2.98-2.26-2.64-2.27-3.11-5.51-1.21-7.97,1.84-2.4,4.92-3.01,7.67-1.09,3.27,2.28,6.2,5.05,9.49,7.29,1.62,1.1,3.71,2.09,5.6,2.1,31.94.13,63.88.08,95.82.09,14.42,0,22.85,8.39,22.85,22.75,0,71.27,0,142.54,0,213.8,0,14.16-8.37,22.64-22.56,22.66-39.05.05-78.1.02-117.16.02-1.6,0-3.21,0-5.1,0v43.9c3.98,0,8.03-.01,12.09,0,1.87,0,3.79-.19,5.59.19,3.06.64,4.76,2.69,4.5,5.93-.25,3.04-2.07,4.71-5.06,5.06-.99.12-1.99.06-2.99.06-41.05,0-82.1,0-123.14,0-.62,0-1.25.01-1.87,0-4.11-.11-6.47-2.2-6.42-5.68.05-3.42,2.44-5.51,6.59-5.56,5.11-.06,10.22-.01,15.62-.01v-43.9h-4.81c-37.68,0-75.36,0-113.04,0-15.04,0-20.03-3.31-25.55-16.93C0,194.95,0,119.67,0,44.4ZM155.14,330.81h71.51v-43.45h-71.51v43.45Z"/>
      <path class="cls-1" d="M203.76,153.29h-21.04c.39,2.94,1.61,6.1.96,8.8-.63,2.62-2.77,5.3-4.97,7.01-3.33,2.59-8.5,1.78-11.8-1.01-4.04-3.42-4.58-7.78-1.8-14.63-7.72-1.04-7.93-1.34-9.41-9.28-5.03-26.99-10.19-53.96-15.13-80.97-.68-3.73-2.25-5.21-5.94-4.66-1.21.18-2.53.14-3.72-.12-3.05-.68-4.86-2.62-4.66-5.84.2-3.19,2.09-5.04,5.3-5.2,2.61-.13,5.27-.26,7.85.09,5.55.75,9.36,3.89,11.08,9.28.75,2.36,1.13,4.85,1.79,7.75,1.42,0,2.87,0,4.33,0,25.32,0,50.63,0,75.95,0,9.14,0,11.12,2.38,9.42,11.36-2.99,15.82-5.97,31.64-8.98,47.46-.99,5.18-2.53,6.44-7.85,6.44-18.71.02-37.41,0-56.12,0-1.35,0-2.69,0-4.5,0,.76,4.17,1.45,7.91,2.21,12.11,1.47,0,2.79,0,4.11,0,17.46,0,34.92,0,52.38.02,1.35,0,3.22-.24,3.95.51,1.5,1.54,3.09,3.58,3.37,5.59.39,2.8-1.84,4.53-4.55,5.01-1.56.28-3.21.05-5.33.05,3.12,6.13,3.18,11.57-2.54,15.73-3.61,2.62-8.68,2.29-12.22-.48-4.18-3.27-4.78-7.4-2.13-15.04ZM173.8,91.33c-.39-5.24-.75-10.24-1.13-15.34h-18.38c1.03,5.32,2.01,10.39,2.97,15.34h16.54ZM230.57,76.04h-17.92c-.35,5.19-.68,10.11-1.03,15.27h15.98c.97-4.98,1.94-9.96,2.97-15.27ZM200.21,91.32c.39-5.1.77-10.1,1.16-15.24h-17.4c.4,5.24.78,10.16,1.17,15.24h15.07ZM175.76,118.08c-.37-5.02-.74-9.97-1.11-15.05h-15.04c1.69,15.78,2.13,16.24,14.94,15.44.23-.01.46-.14,1.21-.39ZM225.4,103.08h-14.74c-.36,5.21-.7,10.13-1.07,15.44,4.03,0,7.63.14,11.2-.11.79-.06,1.93-1.4,2.14-2.33.94-4.13,1.61-8.32,2.47-13ZM198.28,118.36c.37-5.3.72-10.23,1.07-15.27h-13.39c.4,5.26.78,10.2,1.17,15.27h11.15Z"/>
      <path class="cls-1" d="M327.46,80.23c0-4.85-.13-9.21.03-13.56.17-4.75,4.1-7.73,7.7-5.57,1.67,1,3.08,3.59,3.31,5.61.5,4.29.15,8.67.15,13.52,4.64,0,8.84-.04,13.03.01,4.13.05,6.62,2.13,6.67,5.46.05,3.29-2.5,5.64-6.51,5.75-4.22.12-8.45.03-13.18.03,0,4.42.04,8.51-.01,12.6-.05,4.41-2.14,7-5.53,7.02-3.41.02-5.6-2.59-5.67-6.94-.07-4.09-.01-8.18-.01-12.69-4.78,0-9.16.36-13.43-.16-2.01-.25-4.31-1.84-5.52-3.52-.78-1.08-.41-3.89.52-5.07,1.05-1.33,3.27-2.23,5.06-2.37,4.2-.33,8.44-.11,13.38-.11Z"/>
      <path class="cls-1" d="M67.37,199.67c9.97,0,19.95-.02,29.92,0,4.38.01,6.86,2.14,6.8,5.68-.06,3.38-2.51,5.54-6.61,5.54-19.95.04-39.9.03-59.85,0-4.06,0-6.6-2.22-6.66-5.54-.07-3.47,2.52-5.67,6.85-5.68,9.85-.03,19.7,0,29.55-.01Z"/>
      <path class="cls-1" d="M53.17,185.5c-5.22,0-10.44.05-15.67-.02-4.04-.05-6.54-2.26-6.54-5.6,0-3.33,2.54-5.6,6.55-5.62,10.44-.05,20.89-.05,31.33,0,3.99.02,6.56,2.32,6.55,5.63,0,3.32-2.53,5.54-6.56,5.59-5.22.06-10.44.01-15.67.01Z"/>
    </g>
  </g>
</svg>