<?xml version="1.0" encoding="UTF-8"?>
<svg id="Camada_2" data-name="Camada 2" xmlns="http://www.w3.org/2000/svg" viewBox="0 0 360.08 360.13">
  <defs>
    <style>
      .cls-1 {
        fill: #fff;
        stroke-width: 0px;
      }
    </style>
  </defs>
  <g id="Camada_1-2" data-name="Camada 1">
    <g>
      <path class="cls-1" d="M330.93,275.73c-2.69-4.2-4.91-7.8-7.27-11.3-1.81-2.69-1.64-5.2-.29-8.09,2.27-4.84,4.33-9.79,6.17-14.81,1.09-2.98,2.71-4.89,5.92-5.51,4.15-.8,8.25-1.84,12.48-2.79v-10.31c-3.77-.83-7.6-1.8-11.48-2.49-3.88-.69-6-2.76-7.18-6.6-1.38-4.5-3.17-8.96-5.41-13.09-1.99-3.68-2.01-6.71.44-10.04,1.85-2.51,3.57-5.15,4.97-7.92.48-.95.29-2.88-.39-3.66-5.16-5.94-5.22-5.89-11.81-1.67-1.26.81-2.58,1.54-3.77,2.45-3.31,2.54-6.42,2.26-10.04.28-4.02-2.19-8.35-3.99-12.74-5.29-3.99-1.18-6.16-3.32-6.83-7.4-.62-3.79-1.58-7.52-2.4-11.31h-4.99v35.33c4.15.97,8.43,1.44,12.3,2.95,13.36,5.21,21.31,15.14,23.11,29.33,1.71,13.44-3.26,24.57-13.96,32.86-1.75,1.36-4.64,2.14-6.78,1.8-1.55-.25-3.7-2.71-3.83-4.33-.16-1.98.96-4.78,2.5-6.04,5.27-4.3,8.83-9.41,10.08-16.14,2.63-14.12-9.16-28.15-23.66-27.63v4.4c0,39.64,0,79.27,0,118.91,0,20.04-12.47,32.5-32.51,32.5-42.38,0-84.76,0-127.14,0-19.79,0-32.37-12.54-32.38-32.26,0-35.64,0-71.27,0-106.91,0-1.48,0-2.95,0-4.88-3.34,0-6.43.01-9.51,0-3.45-.02-5.67-1.66-6.45-5.07-.8-3.53-1.55-7.07-2.32-10.61-.11-.49-.26-.97-.37-1.45-.82-3.33-12.67-8.14-15.6-6.31-3.39,2.12-6.75,4.29-10.12,6.44-3.08,1.97-5.88,1.63-8.46-.95-4.41-4.43-8.84-8.84-13.26-13.26-2.58-2.58-2.89-5.4-.89-8.46.41-.63.8-1.27,1.2-1.9,2.16-3.5,5.7-6.87,6.06-10.55.35-3.5-2.53-7.38-4.21-10.98-.44-.94-1.6-1.88-2.61-2.16-3.97-1.08-8.01-1.93-12.03-2.79C1.68,147.2-.02,144.88,0,141.09c.04-6-.03-12,.02-18,.03-4.24,1.47-6,5.72-7.04,3.51-.86,7.07-1.57,10.59-2.39,4.34-1.01,9.15-12.69,6.78-16.41-2.02-3.16-4.05-6.31-6.09-9.46-1.99-3.08-1.64-5.89.91-8.47,4.4-4.44,8.83-8.85,13.22-13.3,2.71-2.75,5.59-2.92,8.77-.84,3.34,2.19,6.66,4.44,10.14,6.39,1.07.59,2.71.54,3.99.27,1.43-.31,2.67-1.55,4.09-1.78,5.95-.96,8.04-4.83,8.53-10.32.22-2.47.88-4.92,1.6-7.31.96-3.21,3.96-4.95,6.93-4.27,3.06.7,5.15,3.44,4.54,6.75-1.16,6.38-2.42,12.77-4.15,19.02-.47,1.68-2.54,3.33-4.28,4.16-5.28,2.5-10.67,4.85-16.19,6.72-2.09.71-4.94.58-6.96-.29-3.28-1.42-6.09-3.91-9.27-5.62-.95-.51-2.77-.37-3.69.24-2.17,1.43-4.03,3.33-6.12,5.13,2.64,4.13,4.75,7.64,7.07,11,2,2.9,2,5.56.45,8.74-2.29,4.69-4.26,9.55-6.01,14.47-1.12,3.15-2.87,5.07-6.2,5.71-4.04.78-8.04,1.8-12.2,2.74v10.21c4.32,1,8.55,2.05,12.81,2.95,2.9.61,4.39,2.36,5.41,5.07,1.97,5.24,4.14,10.41,6.47,15.5,1.21,2.64,1.32,4.99-.26,7.43-1.97,3.04-4.06,6.02-5.76,9.21-.5.93-.36,2.89.31,3.67,5.16,6.02,5.22,5.96,11.8,1.76.84-.54,1.75-1,2.51-1.64,4.11-3.49,8.04-3.28,12.64-.47,3.56,2.18,7.72,3.51,11.76,4.72,3.66,1.1,5.77,3.08,6.42,6.88.67,3.91,1.65,7.78,2.51,11.73h4.96v-35.53c-2.96-.54-6.05-.84-9-1.69-13.81-3.97-22.7-13.05-25.79-26.99-3.17-14.31,1.49-26.35,12.65-35.83,1.04-.88,2.18-1.77,3.42-2.26,2.69-1.05,5.23-.61,7.05,1.8,1.9,2.52,1.81,5.15-.27,7.53-.89,1.02-2.09,1.78-3.14,2.66-7.4,6.18-10.41,16.25-7.61,25.42,2.79,9.13,11,15.91,20.49,16.9.71.07,1.43,0,2.47,0,0-1.7,0-3.18,0-4.66,0-39.64,0-79.27,0-118.91C84.03,12.57,96.54,0,116.27,0c42.5,0,85.01,0,127.51,0,19.74,0,32.26,12.56,32.26,32.37,0,35.64,0,71.27,0,106.91v4.78c3.18,0,6.02-.03,8.86,0,4.45.05,6.3,1.51,7.33,5.89.89,3.77,1.62,7.57,2.49,11.34.7,3.03,12.71,8.02,15.34,6.37,3.39-2.12,6.76-4.27,10.1-6.46,3.19-2.1,6.08-1.83,8.77.88,4.32,4.34,8.64,8.69,13,12.99,2.71,2.67,3.12,5.54,1.03,8.76-2.04,3.14-4.05,6.31-6.07,9.47-.34.53-.71,1.04-.98,1.59-1.01,2.07,4.5,13.96,6.74,14.5,3.89.92,7.8,1.73,11.68,2.69,4.23,1.04,5.67,2.83,5.7,7.07.05,6-.01,12,.02,18.01.02,3.8-1.71,6.09-5.48,6.9-3.91.83-7.83,1.65-11.65,2.77-1.19.35-2.36,1.49-3.05,2.58-.85,1.34-.9,3.22-1.82,4.48-3.39,4.63-1.91,8.35,1.11,12.63,7.4,10.49,7.24,10.23-1.85,19.18-2.76,2.72-5.43,5.54-8.21,8.24-3.08,2.99-5.34,3.19-9.05.94-.64-.39-1.26-.82-1.89-1.22q-10.16-6.54-21.23-1.61c-.93.42-1.84,1.63-2.11,2.65-1.02,3.86-1.7,7.8-2.63,11.69-.98,4.12-3.73,6.25-7.07,5.65-3.58-.64-5.45-3.7-4.61-8.03,1.12-5.76,2.17-11.56,3.84-17.16.57-1.91,2.65-3.86,4.53-4.79,5.12-2.53,10.57-4.4,15.77-6.78,2.65-1.21,4.99-1.3,7.42.28,3.04,1.97,6.02,4.06,9.21,5.76.92.49,2.75.25,3.66-.39,2.13-1.47,3.95-3.39,5.95-5.17ZM96.03,179.91c0,49.26,0,98.51,0,147.77,0,13.28,7.1,20.44,20.3,20.44,42.37,0,84.75,0,127.12,0,13.54,0,20.6-7.03,20.61-20.51,0-98.39,0-196.78,0-295.17,0-13.31-7.07-20.43-20.3-20.43-42.37,0-84.75,0-127.12,0-13.57,0-20.6,7-20.6,20.51,0,49.13,0,98.26,0,147.4Z"/>
      <path class="cls-1" d="M300.07,54.34c.1-3.65,2.6-6.28,5.98-6.29,3.37-.01,6.13,2.88,5.99,6.26-.14,3.35-3.03,6.32-6.16,6.32-3.52,0-5.91-2.58-5.8-6.29Z"/>
      <path class="cls-1" d="M306.02,72.06c3.22-.03,5.93,2.62,6.01,5.86.09,3.47-2.86,6.7-6.13,6.72-3.38.02-5.77-2.4-5.83-5.89-.06-3.85,2.44-6.66,5.95-6.69Z"/>
      <path class="cls-1" d="M306.22,96.07c3.22.09,5.84,2.83,5.81,6.07-.04,3.5-3.08,6.62-6.34,6.51-3.53-.12-5.8-2.73-5.62-6.47.17-3.62,2.78-6.21,6.15-6.11Z"/>
      <path class="cls-1" d="M48.02,257.3c.06-3.77,2.78-6.54,6.26-6.37,3.21.15,5.8,2.94,5.71,6.16-.1,3.56-3.03,6.43-6.44,6.31-3.45-.13-5.59-2.49-5.53-6.1Z"/>
      <path class="cls-1" d="M48.02,281.21c.1-3.61,2.64-6.27,5.98-6.28,3.36,0,6.13,2.88,5.98,6.25-.15,3.57-3.11,6.38-6.53,6.21-3.43-.17-5.53-2.56-5.44-6.18Z"/>
      <path class="cls-1" d="M48.02,305.31c.06-3.77,2.78-6.54,6.26-6.37,3.21.15,5.8,2.94,5.71,6.16-.1,3.56-3.03,6.43-6.44,6.31-3.45-.13-5.59-2.49-5.53-6.1Z"/>
      <path class="cls-1" d="M134.48,180.02c6.02,6.01,11.74,11.72,17.46,17.45.97.97,2.01,1.9,2.81,3.01,1.94,2.71,1.78,5.48-.58,7.8-2.36,2.33-5.2,2.51-7.79.43-2.13-1.71-3.98-3.78-5.92-5.72-5.92-5.91-11.86-11.81-17.74-17.76-3.67-3.71-3.68-6.62,0-10.32,7.39-7.45,14.81-14.87,22.25-22.26,3.17-3.15,6.62-3.4,9.23-.84,2.62,2.57,2.44,6.09-.68,9.24-6.22,6.28-12.52,12.48-19.04,18.97Z"/>
      <path class="cls-1" d="M225.57,179.86c-6.11-6.03-11.88-11.73-17.65-17.44-.8-.79-1.64-1.55-2.34-2.43-2.13-2.68-1.99-5.89.26-8.14,2.25-2.25,5.67-2.59,8.11-.22,8.24,8.01,16.37,16.13,24.4,24.36,2.52,2.58,2.41,5.76-.18,8.4-7.87,8.03-15.82,15.99-23.86,23.85-2.61,2.55-6.05,2.4-8.43.11-2.46-2.38-2.54-5.93.14-8.69,5.48-5.65,11.11-11.16,16.66-16.73.86-.87,1.68-1.78,2.88-3.07Z"/>
      <path class="cls-1" d="M192.02,156.84c-.83,3.31-1.84,7.29-2.84,11.27-3,11.97-5.97,23.94-8.99,35.9-1.16,4.59-4.02,6.76-7.53,5.88-3.65-.91-5.17-4.1-4.05-8.63,3.81-15.36,7.61-30.72,11.48-46.07.92-3.65,3.62-5.54,6.77-5.07,2.95.44,5.13,2.98,5.15,6.71Z"/>
      <path class="cls-1" d="M179.86,36.01c-5.62,0-11.25.04-16.87-.01-4.32-.05-7.03-2.53-6.92-6.16.11-3.5,2.72-5.79,6.9-5.81,11.37-.05,22.75-.05,34.12,0,4.33.02,7.04,2.51,6.93,6.16-.11,3.5-2.72,5.77-6.9,5.81-5.75.06-11.5.01-17.25.01Z"/>
    </g>
  </g>
</svg>