<?xml version="1.0" encoding="UTF-8"?>
<svg id="Camada_2" data-name="Camada 2" xmlns="http://www.w3.org/2000/svg" viewBox="0 0 402.5 408.89">
  <defs>
    <style>
      .cls-1 {
        fill: #fff;
        stroke-width: 0px;
      }
    </style>
  </defs>
  <g id="Camada_1-2" data-name="Camada 1">
    <g>
      <path class="cls-1" d="M331.44,0c6.69,2.63,12.23,6.46,13.87,14.02.47,2.18.55,4.48.56,6.73.05,12.77.02,25.53.02,38.95,3.24,0,6.25-.08,9.25.02,4.4.14,6.9,2.41,6.87,6.07-.03,3.59-2.64,5.89-7,6.03-2.89.09-5.79.02-8.89.02v183.31h44.28v-4.45c0-54.96,0-109.92,0-164.88,0-9.35-2.28-12.13-11.51-14.1-3.7-.79-5.66-3.33-5.23-6.8.39-3.21,2.78-5.12,6.46-5.14,10.1-.06,19.46,7.57,21.67,17.85.53,2.45.7,5.01.7,7.53.04,76.65.03,153.31.02,229.96,0,12.86-6.51,21.94-17.84,24.61-2.68.63-5.54.63-8.32.64-39.93.04-79.86.03-119.79.03-1.59,0-3.18,0-5.15,0v32.23c7.25.56,13.9,2.91,19.35,7.98,6.23,5.81,9.62,12.94,9.78,21.51.08,4.08-2.13,6.43-6.22,6.74-1.06.08-2.13.03-3.19.03-46.59,0-93.17,0-139.76,0-8.2,0-9.87-1.83-9.17-9.99,1.09-12.64,12.56-24.23,25.58-25.85,1.05-.13,2.1-.25,3.43-.41v-32.25c-1.63,0-3.05,0-4.47,0-17.97,0-35.94,0-53.91,0-1.46,0-2.94.03-4.38-.14-3.26-.38-5.05-2.44-5.26-5.56-.2-2.97,1.34-5.2,4.27-5.95,1.77-.46,3.68-.45,5.53-.45,94.37-.02,188.74-.02,283.11-.02,10.69,0,14.3-3.63,14.3-14.4,0-14.11,0-28.21,0-42.32,0-1.17,0-2.34,0-3.76H12.33c-.08,1.3-.2,2.47-.2,3.63-.01,14.64-.03,29.28,0,43.92.02,8.85,4.13,12.92,12.96,12.93,10.91.02,21.83,0,32.74.02,1.32,0,2.7-.02,3.96.31,3.07.81,4.76,2.88,4.56,6.13-.21,3.22-2.04,5.45-5.23,5.48-13.97.1-27.97.44-41.9-.27-8.95-.45-16.56-8.41-18.48-17.48-.52-2.45-.69-5.01-.69-7.53C0,238.26,0,161.61,0,84.95c0-12.76,6.23-21.6,17.48-24.47,2.78-.71,5.79-.73,8.7-.76,9.42-.09,18.84-.03,28.81-.03,0-1.8,0-3.21,0-4.62,0-10.51.41-21.05-.11-31.53-.57-11.48,3.35-19.63,14.58-23.53h261.98ZM333.61,100.93h-5.23c-65.75,0-131.5,0-197.25,0-1.86,0-3.74.02-5.57-.26-3.06-.47-5.08-2.71-4.68-5.48.3-2.09,2.11-4.42,3.91-5.7,1.4-.99,3.83-.7,5.81-.7,66.02-.03,132.03-.02,198.05-.02h5.17c0-23.13,0-45.61,0-68.09,0-6.51-2.07-8.57-8.66-8.57-83.19-.01-166.37-.01-249.56,0-6.48,0-8.5,2.11-8.51,8.7-.01,21.29,0,42.58,0,63.88v4.07c8.92,0,17.29-.02,25.66,0,5.34.02,8.23,2.14,8.32,6,.08,3.91-2.75,6.12-8.07,6.16-5.86.05-11.71.01-17.57.01-2.72,0-5.44,0-8.04,0v154.24h266.23V100.93ZM54.79,71.83c-10.02,0-19.6,0-29.17,0-9.61,0-13.5,3.91-13.5,13.58,0,55.21,0,110.42,0,165.63,0,1.39.13,2.79.2,4.11h42.47V71.83ZM238.6,372.51v-31.88h-74.62v31.88h74.62ZM135.59,396.48h131.33c-2.24-7.19-8.64-11.59-16.97-11.61-21.29-.06-42.57-.03-63.86-.02-11.44,0-22.88-.08-34.32.05-7.75.09-14.01,4.64-16.17,11.58Z"/>
      <path class="cls-1" d="M222.83,297.98c-.04,10.02-8.28,18.24-18.3,18.25-10.14,0-18.57-8.52-18.39-18.61.18-9.97,8.61-18.17,18.56-18.07,10,.11,18.18,8.42,18.13,18.43ZM210.69,298.05c.1-3.15-2.72-6.15-5.92-6.31-3.19-.15-6.18,2.58-6.38,5.81-.2,3.36,2.72,6.48,6.08,6.51,3.16.03,6.12-2.83,6.21-6.02Z"/>
      <path class="cls-1" d="M82.27,180.19c0-17.83-.01-35.66,0-53.49,0-6.39,2.02-8.46,8.3-8.46,35.93-.02,71.87-.02,107.8,0,6.03,0,8.18,2.11,8.18,8.2.04,35.93.04,71.85,0,107.78,0,6.25-2.13,8.29-8.52,8.3-35.8.02-71.6.03-107.4,0-6.31,0-8.35-2.12-8.36-8.43-.02-17.96,0-35.93,0-53.89ZM94.51,185.03c.69.1.97.22,1.2.17.64-.14,1.27-.36,1.91-.55,10.79-3.28,21.06-2.37,30.44,4.15,6,4.17,11.59,8.92,17.67,12.95,7.16,4.76,14.75,5.1,22.05.18,7.93-5.34,16-10.01,26.19-8.04v-63.18h-99.46v54.31ZM194.3,230.05c0-6.99-.15-13.62.07-20.24.1-3.02-1.06-3.8-3.85-4.04-5.67-.51-9.89,2.34-14.24,5.24-12.38,8.28-25.02,9.04-37.6.6-6.06-4.06-11.67-8.79-17.69-12.91-7.99-5.46-16.32-4.62-24.54-.43-.89.45-1.94,1.69-1.96,2.58-.14,9.66-.09,19.33-.09,29.2h99.9Z"/>
      <path class="cls-1" d="M108.45,71.94c-6.38,0-12.76.07-19.14-.02-6.05-.09-8.74-4.48-5.79-9.71,6.26-11.1,12.65-22.13,19.13-33.11,3.17-5.37,8.37-5.28,11.56.16,6.32,10.76,12.57,21.57,18.74,32.42,3.3,5.79.6,10.21-6.15,10.26-6.11.05-12.23,0-18.35,0ZM108.37,43.43c-3.3,5.72-6.23,10.82-9.29,16.12h18.59c-3.14-5.45-6.03-10.45-9.3-16.12Z"/>
      <path class="cls-1" d="M216.89,44.78c-16.36,0-32.71,0-49.07,0-1.33,0-2.69.1-3.98-.14-3.12-.56-5-2.46-5.08-5.7-.08-3.43,1.81-5.43,5.1-6.1.9-.18,1.85-.12,2.78-.12,33.51,0,67.02,0,100.54,0,.93,0,1.89-.05,2.78.16,3.09.71,4.9,2.66,4.89,5.89,0,3.22-1.79,5.22-4.91,5.85-1.28.26-2.65.17-3.98.17-16.36,0-32.71,0-49.07,0Z"/>
      <path class="cls-1" d="M271.95,135.6c-13.82,0-27.64.03-41.46-.04-1.82,0-4.18.06-5.32-.98-1.56-1.4-3.07-3.88-2.96-5.81.09-1.72,2.15-3.68,3.82-4.86,1.12-.79,3.08-.53,4.66-.53,27.37-.03,54.74-.02,82.12-.02.66,0,1.33-.02,1.99.02,4.46.25,6.99,2.4,7.05,5.96.06,3.71-2.61,6.18-7.25,6.21-14.22.09-28.43.03-42.65.03Z"/>
      <path class="cls-1" d="M272.38,176.79c13.29,0,26.57-.01,39.86.01,1.58,0,3.2.07,4.75.35,2.99.55,4.7,2.52,4.82,5.5.13,3.19-1.56,5.3-4.69,6.01-1.4.32-2.89.4-4.34.4-27.24.02-54.48.02-81.72,0-1.58,0-3.2-.1-4.73-.47-2.96-.71-4.47-2.76-4.41-5.8.06-3.04,1.67-5,4.65-5.6,1.54-.31,3.16-.38,4.74-.38,13.69-.03,27.37-.02,41.06-.02Z"/>
      <path class="cls-1" d="M271.74,162.2c-13.55,0-27.11,0-40.66,0-1.33,0-2.68.08-3.98-.13-3.13-.51-5-2.36-5.16-5.6-.16-3.26,1.6-5.24,4.62-6.1,1-.28,2.11-.24,3.16-.24,28.04-.01,56.07,0,84.11,0,.8,0,1.6-.03,2.39.07,3.41.44,5.7,2.94,5.64,6.11-.06,3.17-2.39,5.54-5.88,5.83-1.58.13-3.19.07-4.78.07-13.15,0-26.31,0-39.46,0Z"/>
      <path class="cls-1" d="M271.78,215.69c-13.69,0-27.37,0-41.06,0-1.33,0-2.69.09-3.97-.18-2.91-.62-4.65-2.46-4.82-5.52-.17-3.07,1.39-5.07,4.2-6.01,1.1-.37,2.36-.35,3.54-.35,28.17-.02,56.34-.02,84.51,0,4.9,0,7.73,2.33,7.68,6.11-.05,3.78-2.83,5.94-7.83,5.94-14.09.03-28.17,0-42.26,0Z"/>
      <path class="cls-1" d="M188.07,58.51c7.31,0,14.63-.13,21.94.04,5.65.14,8.97,4.92,6.14,8.94-1.12,1.59-3.63,3.06-5.53,3.09-15.16.25-30.32.23-45.48.08-4.2-.04-6.46-2.54-6.41-6.11.05-3.53,2.36-5.88,6.59-5.98,7.58-.18,15.16-.05,22.74-.05h0Z"/>
      <path class="cls-1" d="M248.19,242.53c-6.1,0-12.21.05-18.31-.01-5.36-.05-8.03-2.19-7.97-6.22.06-3.88,2.64-5.98,7.77-6.01,12.47-.06,24.95-.06,37.42,0,4.96.02,7.47,1.95,7.74,5.61.29,3.99-2.27,6.5-7.14,6.6-6.5.13-13,.03-19.5.03Z"/>
      <path class="cls-1" d="M178.95,162.62c-.02,10.23-8.36,18.59-18.53,18.56-10.21-.03-18.47-8.35-18.46-18.62,0-10.23,8.33-18.58,18.51-18.57,10.15.02,18.49,8.43,18.48,18.62ZM160.26,156.32c-3.51.09-6.24,2.96-6.14,6.46.1,3.46,3.05,6.25,6.5,6.15,3.41-.11,6.32-3.15,6.21-6.51-.12-3.44-3.07-6.18-6.57-6.1Z"/>
    </g>
  </g>
</svg>